<svg xmlns="http://www.w3.org/2000/svg" xmlns:xlink="http://www.w3.org/1999/xlink" version="1.1" x="0px" y="0px" viewBox="0 0 100 125" style="enable-background:new 0 0 100 100;" xml:space="preserve"><style type="text/css">
	.st0{fill:none;stroke:#000000;stroke-width:3;stroke-linecap:round;stroke-linejoin:round;stroke-miterlimit:10;}
	.st1{fill:none;stroke:#000000;stroke-width:3;stroke-miterlimit:10;}
</style><path d="M90.8,65l-9.5-3.7l12-8.4C93.1,57.1,92.2,61.2,90.8,65z M68.3,89.5l-4.1-9.3l14.4,2.6C75.5,85.5,72,87.7,68.3,89.5z   M21.4,82.8l14.5-2.6l-3.7,9.6C28.3,87.9,24.7,85.6,21.4,82.8z M6.6,52.9l12.1,8.4l-9.4,4.2C7.9,61.6,6.9,57.4,6.6,52.9z M9.2,35  l9.5,3.7l-12,8.4C6.9,42.9,7.8,38.8,9.2,35z M31.7,10.5l4.1,9.3l-14.4-2.6C24.5,14.6,28,12.3,31.7,10.5z M78.6,17.2l-14.5,2.6  l3.7-9.6C71.7,12.1,75.3,14.4,78.6,17.2z M93.4,47.1l-12.1-8.4l9.4-4.2C92.1,38.4,93.1,42.6,93.4,47.1z M50,68.1l-12.8-5.3L31.9,50  l5.3-12.8L50,31.9l12.8,5.3L68.1,50l-5.3,12.8L50,68.1z M29.9,47l-5.5-7.5l9.2-1.4L29.9,47z M33.7,62l-9.2-1.5l5.5-7.5L33.7,62z   M70.1,53l5.5,7.5L66.3,62L70.1,53z M66.3,38l9.2,1.5L70.1,47L66.3,38z M77,36.6l-11.8-1.9L63.4,23L80,20L77,36.6z M60.6,24.5  l1.4,9.2l-9-3.7L60.6,24.5z M50,28.5l-9.6-7L50,7.6l9.6,13.8L50,28.5z M47,29.9l-9,3.7l1.5-9.2L47,29.9z M34.8,34.8L23,36.6L20,20  l16.6,3L34.8,34.8z M21.5,40.4l7,9.6l-7,9.6L7.6,50L21.5,40.4z M23,63.4l11.8,1.9L36.6,77L20,80L23,63.4z M39.4,75.5L38,66.3l9,3.7  L39.4,75.5z M50,71.5l9.6,7L50,92.4l-9.6-13.8L50,71.5z M53,70.1l9-3.7l-1.5,9.2L53,70.1z M65.2,65.2L77,63.4L80,80l-16.6-3  L65.2,65.2z M78.5,59.6l-7-9.6l7-9.6L92.4,50L78.5,59.6z M80.2,35.8l2.6-14.4c2.7,3.1,4.9,6.5,6.7,10.3L80.2,35.8z M61.3,18.6  l-8.4-12c4.2,0.3,8.2,1.2,12,2.5L61.3,18.6z M38.6,18.7l-4.2-9.4c4-1.5,8.2-2.5,12.6-2.8L38.6,18.7z M17.2,21.4l2.6,14.5l-9.6-3.7  C12.1,28.3,14.4,24.7,17.2,21.4z M19.8,64.2l-2.6,14.4c-2.7-3.1-4.9-6.5-6.7-10.3L19.8,64.2z M38.7,81.4l8.4,12  c-4.2-0.3-8.2-1.2-12-2.5L38.7,81.4z M61.4,81.3l4.2,9.4c-4,1.5-8.2,2.5-12.6,2.8L61.4,81.3z M82.8,78.6l-2.6-14.5l9.6,3.7  C87.9,71.7,85.6,75.3,82.8,78.6z"/><text x="0" y="115" fill="#000000" font-size="5px" font-weight="bold" font-family="'Helvetica Neue', Helvetica, Arial-Unicode, Arial, Sans-serif">Created by Pravin Unagar</text><text x="0" y="120" fill="#000000" font-size="5px" font-weight="bold" font-family="'Helvetica Neue', Helvetica, Arial-Unicode, Arial, Sans-serif">from the Noun Project</text></svg>